<svg xmlns="http://www.w3.org/2000/svg" width="120" height="120" viewBox="0 0 120 120" fill="none">
  <circle cx="60" cy="60" r="56" fill="#E8F5E9" stroke="#1e3a5f" stroke-width="2.5"/>
  <!-- 左耳 -->
  <ellipse cx="26" cy="32" rx="16" ry="14" fill="#A8D8EA" stroke="#1e3a5f" stroke-width="2.5"/>
  <ellipse cx="26" cy="32" rx="8" ry="7" fill="#FFB6C1"/>
  <!-- 右耳 -->
  <ellipse cx="94" cy="32" rx="16" ry="14" fill="#A8D8EA" stroke="#1e3a5f" stroke-width="2.5"/>
  <ellipse cx="94" cy="32" rx="8" ry="7" fill="#FFB6C1"/>
  <!-- 头 -->
  <ellipse cx="60" cy="58" rx="30" ry="28" fill="#A8D8EA" stroke="#1e3a5f" stroke-width="2.5"/>
  <ellipse cx="60" cy="64" rx="22" ry="20" fill="#E8F4F8"/>
  <!-- 眼睛 -->
  <circle cx="48" cy="54" r="3" fill="#1e3a5f"/>
  <circle cx="72" cy="54" r="3" fill="#1e3a5f"/>
  <circle cx="49" cy="53" r="1" fill="white"/>
  <circle cx="73" cy="53" r="1" fill="white"/>
  <!-- 鼻子 -->
  <ellipse cx="60" cy="64" rx="6" ry="5" fill="#1e3a5f"/>
  <!-- 微笑 -->
  <path d="M54 70 Q60 76 66 70" stroke="#1e3a5f" stroke-width="2" stroke-linecap="round"/>
  <!-- 盾牌 -->
  <path d="M60 38 L44 45 L44 57 C44 66 52 74 60 76 C68 74 76 66 76 57 L76 45 Z" fill="#C8E6FF" stroke="#2563eb" stroke-width="2" stroke-linecap="round" stroke-linejoin="round"/>
  <!-- 盾牌上的 ✓ -->
  <path d="M52 54 L58 60 L68 50" stroke="#2563eb" stroke-width="2.5" stroke-linecap="round" stroke-linejoin="round"/>
</svg>
