<svg xmlns="http://www.w3.org/2000/svg" width="120" height="120" viewBox="0 0 120 120" fill="none">
  <circle cx="60" cy="60" r="56" fill="#E8EAF6" stroke="#1e3a5f" stroke-width="2.5"/>
  <!-- 耳朵 -->
  <ellipse cx="26" cy="32" rx="16" ry="14" fill="#A8D8EA" stroke="#1e3a5f" stroke-width="2.5"/>
  <ellipse cx="26" cy="32" rx="8" ry="7" fill="#FFB6C1"/>
  <ellipse cx="94" cy="32" rx="16" ry="14" fill="#A8D8EA" stroke="#1e3a5f" stroke-width="2.5"/>
  <ellipse cx="94" cy="32" rx="8" ry="7" fill="#FFB6C1"/>
  <!-- 头 -->
  <ellipse cx="60" cy="54" rx="30" ry="28" fill="#A8D8EA" stroke="#1e3a5f" stroke-width="2.5"/>
  <ellipse cx="60" cy="60" rx="22" ry="20" fill="#E8F4F8"/>
  <!-- 闭眼（钱眼） -->
  <path d="M44 54 Q48 50 52 54" stroke="#1e3a5f" stroke-width="2.5" stroke-linecap="round" fill="none"/>
  <path d="M68 54 Q72 50 76 54" stroke="#1e3a5f" stroke-width="2.5" stroke-linecap="round" fill="none"/>
  <!-- 鼻子 -->
  <ellipse cx="60" cy="62" rx="6" ry="5" fill="#1e3a5f"/>
  <!-- 微笑 -->
  <path d="M54 68 Q60 74 66 68" stroke="#1e3a5f" stroke-width="2" stroke-linecap="round"/>
  <!-- 金币 -->
  <circle cx="28" cy="85" r="8" fill="#FFD700" stroke="#F9A825" stroke-width="1.5"/>
  <text x="28" y="88" text-anchor="middle" fill="#F9A825" font-size="10" font-weight="bold">$</text>
  <circle cx="46" cy="92" r="7" fill="#FFD700" stroke="#F9A825" stroke-width="1.5"/>
  <text x="46" y="95" text-anchor="middle" fill="#F9A825" font-size="8" font-weight="bold">$</text>
  <circle cx="80" cy="88" r="8" fill="#FFD700" stroke="#F9A825" stroke-width="1.5"/>
  <text x="80" y="91" text-anchor="middle" fill="#F9A825" font-size="10" font-weight="bold">$</text>
  <circle cx="98" cy="80" r="6" fill="#FFD700" stroke="#F9A825" stroke-width="1.5"/>
  <text x="98" y="82" text-anchor="middle" fill="#F9A825" font-size="7" font-weight="bold">$</text>
</svg>
