<svg xmlns="http://www.w3.org/2000/svg" width="120" height="120" viewBox="0 0 120 120" fill="none">
  <circle cx="60" cy="60" r="56" fill="#FFF3E0" stroke="#1e3a5f" stroke-width="2.5"/>
  <!-- 睡帽 -->
  <path d="M36 40 Q40 28 52 26 Q60 38 75 30 Q80 28 86 32" stroke="#4A90D9" stroke-width="3" stroke-linecap="round" fill="none"/>
  <path d="M86 32 Q92 28 96 32 Q98 38 92 40" fill="#4A90D9" stroke="#4A90D9" stroke-width="1.5"/>
  <circle cx="92" cy="34" r="4" fill="white"/>
  <!-- 耳朵 -->
  <ellipse cx="26" cy="40" rx="16" ry="14" fill="#A8D8EA" stroke="#1e3a5f" stroke-width="2.5"/>
  <ellipse cx="26" cy="40" rx="8" ry="7" fill="#FFB6C1"/>
  <ellipse cx="94" cy="40" rx="16" ry="14" fill="#A8D8EA" stroke="#1e3a5f" stroke-width="2.5"/>
  <ellipse cx="94" cy="40" rx="8" ry="7" fill="#FFB6C1"/>
  <!-- 头 -->
  <ellipse cx="60" cy="58" rx="30" ry="28" fill="#A8D8EA" stroke="#1e3a5f" stroke-width="2.5"/>
  <ellipse cx="60" cy="64" rx="22" ry="20" fill="#E8F4F8"/>
  <!-- 闭眼 Zzz -->
  <path d="M44 56 Q48 52 52 56" stroke="#1e3a5f" stroke-width="2" stroke-linecap="round" fill="none"/>
  <path d="M68 56 Q72 52 76 56" stroke="#1e3a5f" stroke-width="2" stroke-linecap="round" fill="none"/>
  <!-- 鼻子 -->
  <ellipse cx="60" cy="64" rx="6" ry="5" fill="#1e3a5f"/>
  <!-- Zzz -->
  <text x="82" y="50" fill="#4A90D9" font-size="10" font-weight="bold" font-family="sans-serif">Z</text>
  <text x="90" y="42" fill="#4A90D9" font-size="8" font-weight="bold" font-family="sans-serif">z</text>
  <text x="96" y="36" fill="#4A90D9" font-size="6" font-weight="bold" font-family="sans-serif">z</text>
</svg>
