<svg xmlns="http://www.w3.org/2000/svg" width="120" height="120" viewBox="0 0 120 120" fill="none">
  <circle cx="60" cy="60" r="56" fill="#F3E5F5" stroke="#1e3a5f" stroke-width="2.5"/>
  <!-- 耳朵 -->
  <ellipse cx="26" cy="32" rx="16" ry="14" fill="#A8D8EA" stroke="#1e3a5f" stroke-width="2.5"/>
  <ellipse cx="26" cy="32" rx="8" ry="7" fill="#FFB6C1"/>
  <ellipse cx="94" cy="32" rx="16" ry="14" fill="#A8D8EA" stroke="#1e3a5f" stroke-width="2.5"/>
  <ellipse cx="94" cy="32" rx="8" ry="7" fill="#FFB6C1"/>
  <!-- 头 -->
  <ellipse cx="60" cy="58" rx="30" ry="28" fill="#A8D8EA" stroke="#1e3a5f" stroke-width="2.5"/>
  <ellipse cx="60" cy="64" rx="22" ry="20" fill="#E8F4F8"/>
  <!-- 眼睛（心形眼看箭头） -->
  <circle cx="46" cy="54" r="4" fill="#E91E63"/>
  <circle cx="74" cy="54" r="4" fill="#E91E63"/>
  <circle cx="47" cy="53" r="1.5" fill="white"/>
  <circle cx="75" cy="53" r="1.5" fill="white"/>
  <!-- 鼻子 -->
  <ellipse cx="60" cy="64" rx="6" ry="5" fill="#1e3a5f"/>
  <!-- 微笑 -->
  <path d="M54 70 Q60 76 66 70" stroke="#1e3a5f" stroke-width="2" stroke-linecap="round"/>
  <!-- 上升箭头 -->
  <path d="M30 88 L50 70 L65 78 L90 55" stroke="#4CAF50" stroke-width="3" stroke-linecap="round" stroke-linejoin="round" fill="none"/>
  <path d="M80 55 L90 55 L90 65" stroke="#4CAF50" stroke-width="3" stroke-linecap="round" stroke-linejoin="round" fill="none"/>
  <!-- 心形 -->
  <path d="M96 20 C96 16 92 14 90 18 C88 14 84 16 84 20 C84 26 90 30 90 30 C90 30 96 26 96 20Z" fill="#E91E63"/>
</svg>
