<svg xmlns="http://www.w3.org/2000/svg" width="120" height="120" viewBox="0 0 120 120" fill="none">
  <circle cx="60" cy="60" r="56" fill="#FCE4EC" stroke="#1e3a5f" stroke-width="2.5"/>
  <!-- 耳朵 -->
  <ellipse cx="26" cy="32" rx="16" ry="14" fill="#A8D8EA" stroke="#1e3a5f" stroke-width="2.5"/>
  <ellipse cx="26" cy="32" rx="8" ry="7" fill="#FFB6C1"/>
  <ellipse cx="94" cy="32" rx="16" ry="14" fill="#A8D8EA" stroke="#1e3a5f" stroke-width="2.5"/>
  <ellipse cx="94" cy="32" rx="8" ry="7" fill="#FFB6C1"/>
  <!-- 头 -->
  <ellipse cx="60" cy="58" rx="30" ry="28" fill="#A8D8EA" stroke="#1e3a5f" stroke-width="2.5"/>
  <ellipse cx="60" cy="64" rx="22" ry="20" fill="#E8F4F8"/>
  <!-- 星星眼 -->
  <path d="M44 52 L46 48 L48 52 L52 54 L48 56 L46 60 L44 56 L40 54Z" fill="#FFD700" stroke="#F9A825" stroke-width="1"/>
  <path d="M72 52 L74 48 L76 52 L80 54 L76 56 L74 60 L72 56 L68 54Z" fill="#FFD700" stroke="#F9A825" stroke-width="1"/>
  <!-- 鼻子 -->
  <ellipse cx="60" cy="64" rx="6" ry="5" fill="#1e3a5f"/>
  <!-- 大笑 -->
  <path d="M52 72 Q60 82 68 72" stroke="#1e3a5f" stroke-width="2" stroke-linecap="round" fill="none"/>
  <!-- 彩带 -->
  <path d="M95 15 Q88 30 92 45" stroke="#E53935" stroke-width="2.5" stroke-linecap="round" fill="none"/>
  <path d="M100 10 Q95 28 98 42" stroke="#FB8C00" stroke-width="2" stroke-linecap="round" fill="none"/>
  <path d="M90 20 Q85 32 88 48" stroke="#43A047" stroke-width="2" stroke-linecap="round" fill="none"/>
  <circle cx="95" cy="15" r="3" fill="#E53935"/>
  <circle cx="100" cy="10" r="3" fill="#FB8C00"/>
  <circle cx="90" cy="20" r="3" fill="#43A047"/>
</svg>
